<?xml version="1.0" encoding="utf-8"?>
<!-- Generator: Adobe Illustrator 16.0.0, SVG Export Plug-In . SVG Version: 6.00 Build 0)  -->
<!DOCTYPE svg PUBLIC "-//W3C//DTD SVG 1.1//EN" "http://www.w3.org/Graphics/SVG/1.1/DTD/svg11.dtd">
<svg version="1.1" id="Layer_1" xmlns="http://www.w3.org/2000/svg" xmlns:xlink="http://www.w3.org/1999/xlink" x="0px" y="0px"
	 width="58px" height="26px" viewBox="0 0 58 26" enable-background="new 0 0 58 26" xml:space="preserve">
<g>
	<path fill="#FFFFFF" d="M3.176,3.569h2.398L3.719,16.085l4.61-5.149h3.106l-5.001,5.608l4.262,5.566H7.759l-4.136-5.381
		L2.826,22.11H0.4L3.176,3.569z"/>
	<path fill="#FFFFFF" d="M12.607,16.767c0-1.675,0.603-3.106,1.807-4.297c1.205-1.189,2.658-1.785,4.36-1.785
		c1.692,0,3.101,0.541,4.227,1.625c1.125,1.084,1.688,2.435,1.688,4.053c0,1.721-0.585,3.15-1.757,4.29
		c-1.172,1.139-2.642,1.709-4.409,1.709c-1.73,0-3.148-0.523-4.255-1.569C13.161,19.746,12.607,18.404,12.607,16.767z
		 M18.843,13.056c-1.088,0-2.004,0.361-2.749,1.081c-0.744,0.721-1.116,1.579-1.116,2.575c0,0.994,0.312,1.789,0.935,2.385
		c0.624,0.595,1.456,0.894,2.498,0.894c1.162,0,2.104-0.326,2.825-0.978c0.72-0.65,1.081-1.507,1.081-2.567
		c0-0.967-0.326-1.773-0.977-2.419C20.69,13.38,19.857,13.056,18.843,13.056z"/>
	<path fill="#FFFFFF" d="M37.008,10.936h2.371L37.746,22.11h-2.398l0.178-1.197c-1.088,1.011-2.264,1.518-3.52,1.518
		c-1.49,0-2.782-0.573-3.876-1.723c-1.095-1.148-1.642-2.509-1.642-4.08c0-1.638,0.574-3.042,1.721-4.214
		c1.147-1.171,2.516-1.758,4.105-1.758c1.877,0,3.32,0.904,4.332,2.712L37.008,10.936z M36.408,16.285
		c0-0.997-0.361-1.856-1.08-2.578c-0.723-0.723-1.57-1.083-2.547-1.083c-1.023,0-1.9,0.394-2.629,1.181
		c-0.731,0.787-1.097,1.738-1.097,2.857c0,1.101,0.345,2.008,1.032,2.725c0.689,0.719,1.559,1.077,2.609,1.077
		c1.07,0,1.955-0.391,2.658-1.175C36.057,18.508,36.408,17.506,36.408,16.285z"/>
	<path fill="#FFFFFF" d="M40.467,20.283l1.312-1.66c0.531,0.567,1.012,0.984,1.445,1.255c0.432,0.27,0.922,0.405,1.471,0.405
		c0.447,0,0.822-0.109,1.131-0.326c0.307-0.217,0.459-0.477,0.459-0.781c-0.006-0.497-0.502-1.019-1.482-1.564
		c-0.984-0.545-1.672-1.082-2.068-1.611c-0.395-0.531-0.592-1.167-0.592-1.911c0-0.939,0.361-1.747,1.088-2.421
		c0.727-0.675,1.594-1.012,2.609-1.012c0.957,0,2.088,0.483,3.391,1.451l-1.312,1.66c-0.939-0.651-1.684-0.977-2.232-0.977
		c-0.41,0-0.748,0.123-1.018,0.369c-0.27,0.245-0.404,0.554-0.404,0.925c0,0.306,0.117,0.581,0.357,0.826
		c0.238,0.247,0.727,0.576,1.471,0.987c0.742,0.411,1.311,0.868,1.701,1.371c0.391,0.502,0.586,1.115,0.586,1.841
		c0,0.948-0.357,1.74-1.076,2.372c-0.715,0.632-1.621,0.948-2.719,0.948c-0.781,0-1.488-0.172-2.121-0.516
		C41.83,21.57,41.166,21.027,40.467,20.283z"/>
	<path fill="#FFFFFF" d="M53.916,5.941h2.371l-0.742,4.994H57.6l-0.309,2.204h-2.074l-1.33,8.971H51.49l1.346-8.971h-1.75
		l0.322-2.204h1.758L53.916,5.941z"/>
</g>
</svg>
